<svg xmlns="http://www.w3.org/2000/svg" viewBox="0 0 320 320" role="img" aria-labelledby="title">
<title>OnyxOS onion logo</title>
<defs>
  <linearGradient id="g" x1="20%" y1="0%" x2="85%" y2="100%">
    <stop offset="0" stop-color="#b56cff"/>
    <stop offset=".5" stop-color="#7b2cff"/>
    <stop offset="1" stop-color="#c48aff"/>
  </linearGradient>
</defs>
<g fill="none" stroke="url(#g)" stroke-linecap="round" stroke-linejoin="round">
  <path stroke-width="13" d="M160 42c-4 33-2 48 3 62 8-26 20-48 43-73-10 34-23 58-39 79 16-21 38-41 63-57-15 31-35 57-59 73 39 12 74 43 91 83 19 47 1 93-35 121-24 19-44 29-67 33"/>
  <path stroke-width="12" d="M160 105c-25 19-55 31-75 59-28 39-27 84-4 116 18 25 43 43 79 53"/>
  <path stroke-width="11" d="M160 111c-18 23-37 42-49 70-16 38-12 77 10 105 12 16 26 28 39 36"/>
  <path stroke-width="10" d="M162 115c-9 29-14 56-11 82 4 34 17 62 28 82"/>
  <path stroke-width="11" d="M174 117c20 24 38 43 49 69 16 38 13 76-9 106-11 15-24 27-40 37"/>
  <path stroke-width="12" d="M164 104c-1 22-1 43 5 61 9 30 26 58 49 83"/>
  <path stroke-width="13" d="M160 104c-19 25-36 48-44 73-10 32-5 67 16 93 8 10 17 18 28 25"/>
  <path stroke-width="12" d="M160 104c27 19 58 31 76 59 26 40 25 83 2 115-17 24-40 41-72 51"/>
</g>
</svg>